<?xml version="1.0" encoding="UTF-8" standalone="no"?><svg width="94" height="94" viewBox="0 0 94 94" fill="none" xmlns="http://www.w3.org/2000/svg">
<path d="M40.0556 26.0968C38.8571 28.4938 37.1651 31.1727 35.3321 33.6403H58.6676C56.8346 31.1727 55.1426 28.4938 53.9441 26.0968L60.0776 22.6423C65.0831 31.9483 73.3316 41.5363 80.7341 46.9648C73.3316 52.4638 65.0831 61.9813 60.0776 71.3578L53.9441 67.9033C55.1426 65.5063 56.8346 62.8273 58.6676 60.3597H35.3321C37.1651 62.8273 38.8571 65.5063 40.0556 67.9033L33.9221 71.3578C28.9166 61.9813 20.6681 52.4638 13.2656 46.9648C20.6681 41.5363 28.9166 31.9483 33.9221 22.6423L40.0556 26.0968ZM29.9741 40.8313C27.9296 43.2988 25.8851 45.4138 23.9816 46.9648C25.8851 48.5863 27.9296 50.7013 29.9741 53.1688H64.0256C66.0701 50.7013 68.1146 48.5863 70.0181 46.9648C68.1146 45.4138 66.0701 43.2988 64.0256 40.8313H29.9741Z" fill="white"/>
</svg>
