<svg width="24" height="24" viewBox="0 0 24 24" fill="none" xmlns="http://www.w3.org/2000/svg">
<path d="M7.98773 14.932L9.27331 13.4L10.8054 14.6855L9.51982 16.2176L7.98773 14.932Z" fill="black"/>
<path d="M5.84515 17.4854L7.13073 15.9533L8.66282 17.2389L7.37724 18.771L5.84515 17.4854Z" fill="black"/>
<path d="M10.1304 12.3787L11.416 10.8466L12.9481 12.1321L11.6625 13.6642L10.1304 12.3787Z" fill="black"/>
<path d="M12.273 9.82484L13.5586 8.29275L15.0907 9.57833L13.8051 11.1104L12.273 9.82484Z" fill="black"/>
<path d="M12.0265 7.00713L13.312 5.47504L14.8441 6.76062L13.5586 8.29275L12.0265 7.00713Z" fill="black"/>
<path d="M15.0907 9.57833L16.3762 8.04622L17.9083 9.3318L16.6227 10.8639L15.0907 9.57833Z" fill="black"/>
<path d="M14.8441 6.76062L16.1297 5.22852L17.6618 6.51409L16.3762 8.04622L14.8441 6.76062Z" fill="black"/>
<path d="M9.20882 7.25409L10.4944 5.72201L12.0265 7.00713L10.7409 8.53967L9.20882 7.25409Z" fill="black"/>
<path d="M15.3372 12.396L16.6227 10.8639L18.1548 12.1495L16.8693 13.6816L15.3372 12.396Z" fill="black"/>
</svg>
