<svg width="24" height="24" viewBox="0 0 24 24" fill="none" xmlns="http://www.w3.org/2000/svg">
<rect x="8.23425" y="14.9321" width="2" height="2" transform="rotate(-50 8.23425 14.9321)" fill="white"/>
<rect x="6.09167" y="17.4858" width="2" height="2" transform="rotate(-50 6.09167 17.4858)" fill="white"/>
<rect x="10.377" y="12.3789" width="2" height="2" transform="rotate(-50 10.377 12.3789)" fill="white"/>
<rect x="12.5195" y="9.8252" width="2" height="2" transform="rotate(-50 12.5195 9.8252)" fill="white"/>
<rect x="12.273" y="7.00732" width="2" height="2" transform="rotate(-50 12.273 7.00732)" fill="white"/>
<rect x="15.3372" y="9.57861" width="2" height="2" transform="rotate(-50 15.3372 9.57861)" fill="white"/>
<rect x="15.0906" y="6.76074" width="2" height="2" transform="rotate(-50 15.0906 6.76074)" fill="white"/>
<rect x="9.45538" y="7.25439" width="2" height="2" transform="rotate(-50 9.45538 7.25439)" fill="white"/>
<rect x="15.5837" y="12.3965" width="2" height="2" transform="rotate(-50 15.5837 12.3965)" fill="white"/>
</svg>
