<svg width="24" height="24" viewBox="0 0 24 24" fill="none" xmlns="http://www.w3.org/2000/svg">
<rect x="7.25513" y="14.5127" width="2.25" height="2.25" transform="rotate(-40 7.25513 14.5127)" fill="black"/>
<rect x="4.38245" y="16.9233" width="2.25" height="2.25" transform="rotate(-40 4.38245 16.9233)" fill="black"/>
<rect x="10.1277" y="12.1025" width="2.25" height="2.25" transform="rotate(-40 10.1277 12.1025)" fill="black"/>
<rect x="13.0004" y="9.69189" width="2.25" height="2.25" transform="rotate(-40 13.0004 9.69189)" fill="black"/>
<rect x="13.2778" y="6.52197" width="2.25" height="2.25" transform="rotate(-40 13.2778 6.52197)" fill="black"/>
<rect x="16.1703" y="9.96924" width="2.25" height="2.25" transform="rotate(-40 16.1703 9.96924)" fill="black"/>
<rect x="16.4476" y="6.79932" width="2.25" height="2.25" transform="rotate(-40 16.4476 6.79932)" fill="black"/>
<rect x="10.1079" y="6.24463" width="2.25" height="2.25" transform="rotate(-40 10.1079 6.24463)" fill="black"/>
<rect x="15.893" y="13.1392" width="2.25" height="2.25" transform="rotate(-40 15.893 13.1392)" fill="black"/>
</svg>
