<svg width="24" height="24" viewBox="0 0 24 24" fill="none" xmlns="http://www.w3.org/2000/svg">
<rect x="8.23419" y="14.9321" width="2" height="2" transform="rotate(-50 8.23419 14.9321)" fill="black"/>
<rect x="6.09161" y="17.4858" width="2" height="2" transform="rotate(-50 6.09161 17.4858)" fill="black"/>
<rect x="10.3769" y="12.3789" width="2" height="2" transform="rotate(-50 10.3769 12.3789)" fill="black"/>
<rect x="12.5195" y="9.8252" width="2" height="2" transform="rotate(-50 12.5195 9.8252)" fill="black"/>
<rect x="12.2729" y="7.00732" width="2" height="2" transform="rotate(-50 12.2729 7.00732)" fill="black"/>
<rect x="15.3371" y="9.57861" width="2" height="2" transform="rotate(-50 15.3371 9.57861)" fill="black"/>
<rect x="15.0906" y="6.76074" width="2" height="2" transform="rotate(-50 15.0906 6.76074)" fill="black"/>
<rect x="9.45532" y="7.25439" width="2" height="2" transform="rotate(-50 9.45532 7.25439)" fill="black"/>
<rect x="15.5837" y="12.3965" width="2" height="2" transform="rotate(-50 15.5837 12.3965)" fill="black"/>
</svg>
