<svg width="72" height="72" viewBox="0 0 72 72" fill="none" xmlns="http://www.w3.org/2000/svg">
<g clip-path="url(#clip0_445_1417)">
<path fill-rule="evenodd" clip-rule="evenodd" d="M36 0.9C55.3852 0.9 71.1 16.6148 71.1 36C71.1 55.3852 55.3852 71.1 36 71.1C16.6148 71.1 0.899999 55.3852 0.899999 36C0.899999 16.6148 16.6148 0.9 36 0.9ZM72 36C72 16.1178 55.8822 0 36 0C16.1177 0 0 16.1178 0 36C0 55.8823 16.1177 72 36 72C55.8822 72 72 55.8823 72 36Z" fill="black"/>
<path d="M41.9062 35.4375H39.375V37.9688H41.9062V35.4375Z" fill="black"/>
<path d="M46.125 35.4375H43.5938V37.9688H46.125V35.4375Z" fill="black"/>
<path d="M37.6875 35.4375H35.1562V37.9688H37.6875V35.4375Z" fill="black"/>
<path d="M33.4688 35.4375H30.9375V37.9688H33.4688V35.4375Z" fill="black"/>
<path d="M30.9375 32.9062H28.4062V35.4375H30.9375V32.9062Z" fill="black"/>
<path d="M30.9375 37.9688H28.4062V40.5H30.9375V37.9688Z" fill="black"/>
<path d="M28.4062 35.4375H25.875V37.9688H28.4062V35.4375Z" fill="black"/>
<path d="M33.4688 30.375H30.9375V32.9062H33.4688V30.375Z" fill="black"/>
<path d="M33.4688 40.5H30.9375V43.0312H33.4688V40.5Z" fill="black"/>
</g>
<defs>
<clipPath id="clip0_445_1417">
<rect width="72" height="72" fill="white"/>
</clipPath>
</defs>
</svg>
