<svg width="80" height="80" viewBox="0 0 80 80" fill="none" xmlns="http://www.w3.org/2000/svg">
<rect x="0.5" y="0.5" width="79" height="79" rx="39.5" stroke="black"/>
<rect width="3" height="3" transform="matrix(-1 0 0 1 47 38.5)" fill="black"/>
<rect width="3" height="3" transform="matrix(-1 0 0 1 52 38.5)" fill="black"/>
<rect width="3" height="3" transform="matrix(-1 0 0 1 42 38.5)" fill="black"/>
<rect width="3" height="3" transform="matrix(-1 0 0 1 37 38.5)" fill="black"/>
<rect width="3" height="3" transform="matrix(-1 0 0 1 34 35.5)" fill="black"/>
<rect width="3" height="3" transform="matrix(-1 0 0 1 34 41.5)" fill="black"/>
<rect width="3" height="3" transform="matrix(-1 0 0 1 31 38.5)" fill="black"/>
<rect width="3" height="3" transform="matrix(-1 0 0 1 37 32.5)" fill="black"/>
<rect width="3" height="3" transform="matrix(-1 0 0 1 37 44.5)" fill="black"/>
</svg>
