<svg width="32" height="32" viewBox="0 0 32 32" fill="none" xmlns="http://www.w3.org/2000/svg">
<path d="M32 20.6391V11.1716H30.1065V13.0651H28.213V11.1716H30.1065V9.27811H24.426V7.57396H20.6391V5.68047H24.426V3.78698H18.7456V7.57396H16.8521V5.68047H11.1716L11.1716 1.89349H7.38462V-4.17233e-07H5.49112V1.89349H3.59763L3.59763 3.78698H9.27811V9.46746H11.1716V22.5325H9.27811V28.213H3.59763V30.1065H5.49112V32H7.38462V30.1065H11.1716V26.3195H16.8521V24.426H18.7456V28.213H24.426V26.3195H20.6391V24.426H24.426V22.5325H30.1065V20.6391H28.213V18.7456H30.1065V20.6391H32Z" fill="white"/>
<path d="M26.3195 26.3195V24.426H24.426V26.3195H26.3195Z" fill="white"/>
<path d="M26.3195 28.213H24.426V30.1065H26.3195V28.213Z" fill="white"/>
<path d="M26.3195 28.213V26.3195H28.213V28.213H26.3195Z" fill="white"/>
<path d="M3.59763 30.1065H1.70414V32H3.59763V30.1065Z" fill="white"/>
<path d="M3.59763 28.213V26.3195H1.70414V28.213H3.59763Z" fill="white"/>
<path d="M3.59763 3.78698L1.70414 3.78698V5.68047L3.59763 5.68047V3.78698Z" fill="white"/>
<path d="M3.59763 1.89349V-4.17233e-07H1.70414V1.89349L3.59763 1.89349Z" fill="white"/>
<path d="M26.3195 3.78698V1.89349H24.426V3.78698H26.3195Z" fill="white"/>
<path d="M26.3195 5.68047H28.213V3.78698H26.3195V5.68047Z" fill="white"/>
<path d="M26.3195 5.68047V7.57396H24.426V5.68047H26.3195Z" fill="white"/>
</svg>
