<svg width="586" height="146" viewBox="0 0 586 146" fill="none" xmlns="http://www.w3.org/2000/svg">
<path d="M249.15 54.9135C249.15 62.9921 242.601 69.5412 234.523 69.5412C226.444 69.5412 219.895 62.9921 219.895 54.9135C219.895 46.8349 226.444 40.2858 234.523 40.2858C242.601 40.2858 249.15 46.8349 249.15 54.9135Z" fill="black"/>
<path d="M324.923 107.123C317.06 107.123 310.132 105.251 304.14 101.506C298.149 97.7617 293.406 92.8935 289.911 86.902V145.132H269.315V1.79209H287.477V24.9276C291.221 19.0609 296.089 14.3801 302.081 10.885C308.072 7.38999 314.75 5.64247 322.115 5.64247C328.855 5.64247 335.034 7.01552 340.651 9.76161C346.268 12.3829 351.136 16.0652 355.255 20.8084C359.374 25.5517 362.557 30.9815 364.804 37.0978C367.176 43.0893 368.362 49.4552 368.362 56.1957C368.362 65.5574 366.489 74.1077 362.745 81.8467C359.125 89.5857 354.007 95.7645 347.391 100.383C340.901 104.877 333.411 107.123 324.923 107.123ZM318.183 89.5233C322.552 89.5233 326.484 88.5872 329.979 86.7148C333.599 84.8425 336.657 82.346 339.153 79.2254C341.774 76.1049 343.772 72.5474 345.145 68.5531C346.518 64.5588 347.204 60.4396 347.204 56.1957C347.204 51.702 346.455 47.4581 344.957 43.4638C343.46 39.4694 341.275 35.9744 338.404 32.9786C335.658 29.9829 332.413 27.6113 328.668 25.8638C325.048 24.1162 321.054 23.2425 316.685 23.2425C314.064 23.2425 311.318 23.7418 308.447 24.7403C305.576 25.7389 302.892 27.112 300.396 28.8595C297.899 30.607 295.715 32.6666 293.843 35.0382C291.97 37.4099 290.66 39.9063 289.911 42.5276V68.1786C291.658 72.173 293.967 75.7928 296.838 79.0382C299.709 82.1588 303.017 84.7177 306.762 86.7148C310.506 88.5872 314.313 89.5233 318.183 89.5233Z" fill="black"/>
<path d="M324.889 107.175C317.026 107.175 310.098 105.303 304.106 101.558C298.115 97.8135 293.372 92.9454 289.877 86.9539V145.184H269.281V1.84393H287.443V24.9794C291.187 19.1128 296.055 14.4319 302.047 10.9369C308.038 7.44183 314.716 5.69431 322.081 5.69431C328.821 5.69431 335 7.06736 340.617 9.81345C346.234 12.4347 351.102 16.117 355.221 20.8603C359.341 25.6035 362.523 31.0333 364.77 37.1496C367.142 43.1411 368.328 49.5071 368.328 56.2475C368.328 65.6092 366.455 74.1596 362.711 81.8986C359.091 89.6376 353.973 95.8163 347.358 100.435C340.867 104.928 333.377 107.175 324.889 107.175ZM318.149 89.5751C322.518 89.5751 326.45 88.639 329.945 86.7667C333.565 84.8943 336.623 82.3979 339.119 79.2773C341.741 76.1567 343.738 72.5993 345.111 68.6049C346.484 64.6106 347.17 60.4915 347.17 56.2475C347.17 51.7539 346.421 47.5099 344.923 43.5156C343.426 39.5213 341.241 36.0262 338.37 33.0305C335.624 30.0347 332.379 27.6631 328.634 25.9156C325.014 24.1681 321.02 23.2943 316.651 23.2943C314.03 23.2943 311.284 23.7936 308.413 24.7922C305.542 25.7908 302.858 27.1638 300.362 28.9113C297.865 30.6589 295.681 32.7184 293.809 35.0901C291.936 37.4617 290.626 39.9581 289.877 42.5794V68.2305C291.624 72.2248 293.933 75.8447 296.804 79.09C299.675 82.2106 302.983 84.7695 306.728 86.7667C310.472 88.639 314.28 89.5751 318.149 89.5751Z" fill="black"/>
<path d="M0 1.61538H57.1736V107.08H0V1.61538Z" fill="black"/>
<path d="M362.469 0.351601H372.821L364.184 9.55433H353.831L362.469 0.351601ZM364.184 9.55433H374.536V19.3464H364.184V9.55433ZM374.536 9.55433H384.889V19.3464H374.536V9.55433ZM384.889 9.55433H395.241V19.3464H384.889V9.55433ZM395.241 9.55433H405.594V19.3464H395.241V9.55433ZM405.594 9.55433H415.946V19.3464H405.594V9.55433ZM415.946 9.55433H426.299V19.3464H415.946V9.55433ZM393.526 0.351601H403.879L395.241 9.55433H384.889L393.526 0.351601ZM403.879 0.351601H414.231L405.594 9.55433H395.241L403.879 0.351601ZM414.231 0.351601H424.584L415.946 9.55433H405.594L414.231 0.351601ZM426.299 19.3464H436.651V29.1385H426.299V19.3464ZM415.946 19.3464H426.299V29.1385H415.946V19.3464ZM415.946 29.1385H426.299V38.9306H415.946V29.1385ZM415.946 38.9306H426.299V48.7228H415.946V38.9306ZM405.594 38.9306H415.946V48.7228H405.594V38.9306ZM405.594 29.1385H415.946V38.9306H405.594V29.1385ZM405.594 19.3464H415.946V29.1385H405.594V19.3464ZM405.594 48.7228H415.946V58.5149H405.594V48.7228ZM415.946 48.7228H426.299V58.5149H415.946V48.7228ZM405.594 58.5149H415.946V68.307H405.594V58.5149ZM415.946 58.5149H426.299V68.307H415.946V58.5149ZM395.241 38.9306H405.594V48.7228H395.241V38.9306ZM384.889 38.9306H395.241V48.7228H384.889V38.9306ZM395.241 58.5149H405.594V68.307H395.241V58.5149ZM384.889 58.5149H395.241V68.307H384.889V58.5149ZM405.594 68.307H415.946V78.0991H405.594V68.307ZM415.946 68.307H426.299V78.0991H415.946V68.307ZM415.946 78.0991H426.299V87.8912H415.946V78.0991ZM405.594 78.0991H415.946V87.8912H405.594V78.0991ZM405.594 87.8912H415.946V97.6833H405.594V87.8912ZM415.946 87.8912H426.299V97.6833H415.946V87.8912ZM457.356 78.0991H474.439L467.708 87.8912H457.356V78.0991ZM457.356 87.8912H467.708L474.439 97.6833H457.356V87.8912ZM457.356 97.6833H474.439V107.475H462.502L457.356 97.6833ZM467.708 87.8912H478.061L484.792 97.6833H474.439L467.708 87.8912ZM474.439 78.0991H484.792L478.061 87.8912H467.708L474.439 78.0991ZM474.439 97.6833H484.792L474.439 107.475V97.6833ZM415.946 97.6833H426.299V107.475H415.946V97.6833ZM426.299 87.8912H436.651V97.6833H426.299V87.8912ZM426.299 97.6833H436.651V107.475H426.299V97.6833ZM436.651 97.6833H447.004V107.475H436.651V97.6833ZM447.004 97.6833H457.356L462.502 107.475H447.004V97.6833Z" fill="black"/>
<path d="M451.09 0H461.443L452.805 9.20273H442.453L451.09 0ZM452.805 9.20273H463.158V18.9948H452.805V9.20273ZM463.158 9.20273H473.51V18.9948H463.158V9.20273ZM473.51 9.20273H483.863V18.9948H473.51V9.20273ZM483.863 9.20273H494.215V18.9948H483.863V9.20273ZM494.215 9.20273H504.567V18.9948H494.215V9.20273ZM504.567 9.20273H514.92V18.9948H504.567V9.20273ZM482.147 0H492.5L483.863 9.20273H473.51L482.147 0ZM492.5 0H502.852L494.215 9.20273H483.863L492.5 0ZM502.852 0H513.205L504.567 9.20273H494.215L502.852 0ZM514.92 18.9948H525.272V28.7869H514.92V18.9948ZM504.567 18.9948H514.92V28.7869H504.567V18.9948ZM504.567 28.7869H514.92V38.579H504.567V28.7869ZM504.567 38.579H514.92V48.3712H504.567V38.579ZM494.215 38.579H504.567V48.3712H494.215V38.579ZM494.215 28.7869H504.567V38.579H494.215V28.7869ZM494.215 18.9948H504.567V28.7869H494.215V18.9948ZM494.215 48.3712H504.567V58.1632H494.215V48.3712ZM504.567 48.3712H514.92V58.1632H504.567V48.3712ZM494.215 58.1632H504.567V67.9554H494.215V58.1632ZM504.567 58.1632H514.92V67.9554H504.567V58.1632ZM483.863 38.579H494.215V48.3712H483.863V38.579ZM473.51 38.579H483.863V48.3712H473.51V38.579ZM483.863 58.1632H494.215V67.9554H483.863V58.1632ZM473.51 58.1632H483.863V67.9554H473.51V58.1632ZM494.215 67.9554H504.567V77.7475H494.215V67.9554ZM504.567 67.9554H514.92V77.7475H504.567V67.9554ZM504.567 77.7475H514.92V87.5396H504.567V77.7475ZM494.215 77.7475H504.567V87.5396H494.215V77.7475ZM494.215 87.5396H504.567V97.3317H494.215V87.5396ZM504.567 87.5396H514.92V97.3317H504.567V87.5396ZM525.272 9.20273H535.625V18.9948H525.272V9.20273ZM535.625 9.20273H545.977V18.9948H535.625V9.20273ZM545.977 9.20273H556.33V18.9948H545.977V9.20273ZM556.33 9.20273H566.682V18.9948H556.33V9.20273ZM544.262 0H554.615L545.977 9.20273H535.625L544.262 0ZM554.615 0H564.967L556.33 9.20273H545.977L554.615 0ZM575.32 0H585.672L577.035 9.20273H566.682L575.32 0ZM556.33 18.9948H566.682V28.7869H556.33V18.9948ZM556.33 28.7869H566.682V38.579H556.33V28.7869ZM556.33 38.579H566.682V48.3712H556.33V38.579ZM556.33 48.3712H566.682V58.1632H556.33V48.3712ZM545.977 48.3712H556.33V58.1632H545.977V48.3712ZM545.977 38.579H556.33V48.3712H545.977V38.579ZM545.977 28.7869H556.33V38.579H545.977V28.7869ZM545.977 18.9948H556.33V28.7869H545.977V18.9948ZM545.977 58.1632H556.33V67.9554H545.977V58.1632ZM556.33 58.1632H566.682V67.9554H556.33V58.1632ZM545.977 67.9554H556.33L563.061 77.7475H545.977V67.9554ZM545.977 77.7475H563.061L556.33 87.5396H545.977V77.7475ZM545.977 87.5396H556.33L563.061 97.3317H545.977V87.5396ZM545.977 97.3317H563.061V107.124H551.124L545.977 97.3317ZM556.33 87.5396H566.682L573.413 97.3317H563.061L556.33 87.5396ZM556.33 67.9554H566.682L573.413 77.7475H563.061L556.33 67.9554ZM563.061 77.7475H573.413L566.682 87.5396H556.33L563.061 77.7475ZM563.061 97.3317H573.413L563.061 107.124V97.3317ZM504.567 97.3317H514.92V107.124H504.567V97.3317ZM514.92 87.5396H525.272V97.3317H514.92V87.5396ZM514.92 97.3317H525.272V107.124H514.92V97.3317ZM525.272 97.3317H535.625V107.124H525.272V97.3317ZM535.625 97.3317H545.977L551.124 107.124H535.625V97.3317ZM551.124 107.124H563.061L556.33 116.916H545.977L551.124 107.124ZM563.061 107.124L566.682 116.916H556.33L563.061 107.124ZM545.977 116.916H556.33V126.708H540.793L545.977 116.916ZM535.625 126.708H540.793L545.977 136.5H535.625V126.708ZM525.272 126.708H535.625V136.5H525.272V126.708ZM514.92 126.708H525.272V136.5H514.92V126.708ZM504.567 126.708H514.92V136.5H504.567V126.708ZM494.215 126.708H504.567V136.5H494.215V126.708ZM494.215 116.916H504.567V126.708H494.215V116.916ZM483.863 116.916H494.215V126.708H483.863V116.916ZM473.51 116.916H483.863V126.708H473.51V116.916ZM483.863 107.124H494.215V116.916H483.863V107.124ZM463.158 126.708H473.51L465.719 136.5H454.716L463.158 126.708Z" fill="black"/>
<path d="M241.523 91.1007H253.049V103.884H241.523V91.1007ZM253.049 78.3171H264.575V91.1007H253.049V78.3171ZM264.575 91.1007H276.101V103.884H264.575V91.1007ZM264.575 78.3171H276.101V91.1007H264.575V78.3171ZM264.575 65.5335H276.101V78.3171H264.575V65.5335ZM276.101 65.5335H287.627V78.3171H276.101V65.5335ZM276.101 52.7499H287.627V65.5335H276.101V52.7499ZM276.101 78.3171H287.627V91.1007H276.101V78.3171ZM276.101 91.1007H287.627V103.884H276.101V91.1007ZM264.575 103.884H276.101V116.668H264.575V103.884ZM264.575 116.668H276.101V129.452H264.575V116.668ZM264.575 129.452H276.101V142.235H264.575V129.452ZM276.101 116.668H287.627V129.452H276.101V116.668ZM276.101 103.884H287.627V116.668H276.101V103.884ZM264.575 52.7499H276.101V65.5335H264.575V52.7499ZM264.575 39.9662H276.101V52.7499H264.575V39.9662ZM264.575 27.1826H276.101V39.9662H264.575V27.1826ZM264.575 14.399H276.101V27.1826H264.575V14.399ZM241.523 14.399H253.049V27.1826H241.523V14.399ZM253.049 14.399H264.575V27.1826H253.049V14.399ZM253.049 1.61539H264.575V14.399H253.049V1.61539ZM264.575 1.61539H276.101V14.399H264.575V1.61539ZM276.101 14.399H287.627V27.1826H276.101V14.399ZM276.101 39.9662H287.627V52.7499H276.101V39.9662ZM276.101 27.1826H287.627V39.9662H276.101V27.1826Z" fill="black"/>
<path d="M186.957 107.08V31.9179L147.825 88.9578H135.468L96.1484 31.9179V107.08H75.1782V1.61539H97.6462L141.646 66.0824L185.646 1.61539H208.114V107.08H186.957Z" fill="black"/>
</svg>
