<?xml version="1.0" encoding="UTF-8" standalone="no"?><svg width="82" height="25" viewBox="0 0 82 25" fill="none" xmlns="http://www.w3.org/2000/svg">
<g clip-path="url(#clip0_68_135)">
<path d="M77.9102 19.7721V12.0578V5.26043L80.4816 4.34351V19.7721H77.9102Z" fill="black"/>
<circle cx="35.0672" cy="12.1228" r="2.14286" fill="black"/>
<g clip-path="url(#clip1_68_135)">
<path d="M46.9919 19.7712C45.8399 19.7712 44.8251 19.4969 43.9474 18.9484C43.0697 18.3998 42.3748 17.6866 41.8628 16.8089V25.3392H38.8457V4.34086H41.5062V7.73006C42.0548 6.87063 42.7679 6.18492 43.6457 5.67292C44.5234 5.16092 45.5017 4.90492 46.5805 4.90492C47.5679 4.90492 48.4731 5.10606 49.2959 5.50835C50.1188 5.89235 50.8319 6.43178 51.4354 7.12663C52.0388 7.82149 52.5051 8.61692 52.8342 9.51292C53.1817 10.3906 53.3554 11.3232 53.3554 12.3106C53.3554 13.6821 53.0811 14.9346 52.5325 16.0683C52.0022 17.2021 51.2525 18.1072 50.2834 18.7838C49.3325 19.4421 48.2354 19.7712 46.9919 19.7712ZM46.0045 17.1929C46.6445 17.1929 47.2205 17.0558 47.7325 16.7815C48.2628 16.5072 48.7108 16.1415 49.0765 15.6843C49.4605 15.2272 49.7531 14.7061 49.9542 14.1209C50.1554 13.5358 50.2559 12.9323 50.2559 12.3106C50.2559 11.6523 50.1462 11.0306 49.9268 10.4455C49.7074 9.86035 49.3874 9.34835 48.9668 8.90949C48.5645 8.47063 48.0891 8.12321 47.5405 7.86721C47.0102 7.61121 46.4251 7.4832 45.7851 7.4832C45.4011 7.4832 44.9988 7.55635 44.5782 7.70263C44.1577 7.84892 43.7645 8.05006 43.3988 8.30606C43.0331 8.56206 42.7131 8.86378 42.4388 9.21121C42.1645 9.55864 41.9725 9.92435 41.8628 10.3083V14.0661C42.1188 14.6512 42.4571 15.1815 42.8777 15.6569C43.2982 16.1141 43.7828 16.4889 44.3314 16.7815C44.8799 17.0558 45.4377 17.1929 46.0045 17.1929Z" fill="black"/>
</g>
<g clip-path="url(#clip2_68_135)">
<path d="M46.9866 19.7789C45.8346 19.7789 44.8198 19.5046 43.942 18.956C43.0643 18.4074 42.3695 17.6943 41.8575 16.8166V25.3469H38.8403V4.34851H41.5009V7.73771C42.0495 6.87828 42.7626 6.19257 43.6403 5.68057C44.518 5.16857 45.4963 4.91257 46.5752 4.91257C47.5626 4.91257 48.4678 5.11371 49.2906 5.51599C50.1135 5.89999 50.8266 6.43942 51.43 7.13428C52.0335 7.82914 52.4998 8.62457 52.8289 9.52057C53.1763 10.3983 53.35 11.3309 53.35 12.3183C53.35 13.6897 53.0758 14.9423 52.5272 16.076C51.9969 17.2097 51.2472 18.1149 50.278 18.7914C49.3272 19.4497 48.23 19.7789 46.9866 19.7789ZM45.9992 17.2006C46.6392 17.2006 47.2152 17.0634 47.7272 16.7891C48.2575 16.5149 48.7055 16.1491 49.0712 15.692C49.4552 15.2349 49.7478 14.7137 49.9489 14.1286C50.15 13.5434 50.2506 12.94 50.2506 12.3183C50.2506 11.66 50.1409 11.0383 49.9215 10.4531C49.702 9.868 49.382 9.356 48.9615 8.91714C48.5592 8.47828 48.0838 8.13085 47.5352 7.87485C47.0049 7.61885 46.4198 7.49085 45.7798 7.49085C45.3958 7.49085 44.9935 7.56399 44.5729 7.71028C44.1523 7.85657 43.7592 8.05771 43.3935 8.31371C43.0278 8.56971 42.7078 8.87143 42.4335 9.21885C42.1592 9.56628 41.9672 9.932 41.8575 10.316V14.0737C42.1135 14.6589 42.4518 15.1891 42.8723 15.6646C43.2929 16.1217 43.7775 16.4966 44.326 16.7891C44.8746 17.0634 45.4323 17.2006 45.9992 17.2006Z" fill="black"/>
</g>
<path d="M78.5461 0.921021H81.2153L80.5766 3.49245H77.9106L78.5461 0.921021Z" fill="black"/>
<rect x="0.710938" y="4.31506" width="8.37556" height="15.4499" fill="black"/>
<path d="M71.9257 19.4977V17.4128C71.3406 18.2175 70.6 18.8119 69.704 19.196C68.808 19.58 67.8572 19.7721 66.8514 19.7721C65.9372 19.7721 65.1052 19.58 64.3554 19.196C63.624 18.7936 63.048 18.2541 62.6274 17.5774C62.2069 16.8825 61.9966 16.1143 61.9966 15.2731C61.9966 14.5232 62.1612 13.8648 62.4903 13.2979C62.8377 12.731 63.2949 12.2555 63.8617 11.8714C64.4286 11.4873 65.0777 11.2039 65.8092 11.021C66.5406 10.8381 67.2903 10.7466 68.0583 10.7466C68.8994 10.7466 69.6492 10.8198 70.3074 10.9661C70.9657 11.0941 71.4777 11.2404 71.8434 11.405V10.4175C71.8434 9.375 71.5326 8.55201 70.9109 7.94849C70.3074 7.34497 69.448 7.04321 68.3326 7.04321C67.5829 7.04321 66.8332 7.18037 66.0834 7.4547C65.3337 7.72903 64.5657 8.14052 63.7794 8.68918L62.8469 6.76888C63.688 6.20193 64.5932 5.75386 65.5623 5.42467C66.5314 5.07718 67.5463 4.90344 68.6069 4.90344C69.96 4.90344 71.0937 5.14119 72.008 5.6167C72.9406 6.07391 73.6446 6.75059 74.12 7.64673C74.6137 8.52458 74.8606 9.55789 74.8606 10.7466V19.4977H71.9257ZM71.2674 16.0412C71.6514 15.6754 71.8434 15.3279 71.8434 14.9987V13.1059C71.3132 12.9047 70.7554 12.7492 70.1703 12.6395C69.6034 12.5298 69.0549 12.4749 68.5246 12.4749C68.0857 12.4749 67.6469 12.5298 67.208 12.6395C66.7692 12.731 66.3669 12.8864 66.0012 13.1059C65.6537 13.307 65.3703 13.5722 65.1509 13.9014C64.9497 14.2123 64.8492 14.5872 64.8492 15.0262C64.8492 15.52 64.9772 15.9589 65.2332 16.343C65.5074 16.727 65.8549 17.0288 66.2754 17.2482C66.696 17.4494 67.1623 17.55 67.6743 17.55C68.1132 17.55 68.5612 17.4951 69.0183 17.3854C69.4754 17.2757 69.9052 17.1111 70.3074 16.8916C70.7097 16.6721 71.0297 16.3887 71.2674 16.0412Z" fill="black"/>
<path d="M57.3269 19.7721C56.504 19.7721 55.864 19.5709 55.4069 19.1686C54.9498 18.7663 54.7212 18.1903 54.7212 17.4406C54.7212 17.2943 54.7303 17.1389 54.7486 16.9743C54.7669 16.8098 54.7943 16.6543 54.8309 16.5081L58.1431 0.914917H61.1328L58.0675 15.4109C58.0492 15.5023 58.0309 15.5938 58.0126 15.6852C57.9943 15.7766 57.9852 15.8681 57.9852 15.9595C57.9852 16.7275 58.3783 17.1115 59.1646 17.1115C59.3658 17.1115 59.6035 17.0749 59.8778 17.0018C60.1703 16.9286 60.4355 16.8463 60.6732 16.7549L60.5635 19.1138C60.1063 19.2966 59.5669 19.4521 58.9452 19.5801C58.3418 19.7081 57.8023 19.7721 57.3269 19.7721Z" fill="black"/>
<path d="M28.099 19.7649V8.75418L22.3664 17.1102H20.5561L14.7961 8.75418V19.7649H11.7241V4.31506H15.0155L21.4613 13.7591L27.907 4.31506H31.1984V19.7649H28.099Z" fill="black"/>
</g>
<defs>
<clipPath id="clip0_68_135">
<rect width="80.5714" height="24" fill="white" transform="translate(0.714355 0.914917)"/>
</clipPath>
<clipPath id="clip1_68_135">
<rect width="15.4286" height="20.5714" fill="white" transform="translate(38.4287 4.34351)"/>
</clipPath>
<clipPath id="clip2_68_135">
<rect width="12" height="20.5714" fill="white" transform="translate(41.8574 4.34351)"/>
</clipPath>
</defs>
</svg>
