<svg width="82" height="25" viewBox="0 0 82 25" fill="none" xmlns="http://www.w3.org/2000/svg">
<g clip-path="url(#clip0_274_82)">
<mask id="mask0_274_82" style="mask-type:luminance" maskUnits="userSpaceOnUse" x="0" y="0" width="82" height="25">
<path d="M81.2858 0.915039H0.714355V24.915H81.2858V0.915039Z" fill="white"/>
</mask>
<g mask="url(#mask0_274_82)">
<path d="M77.9102 19.7723V12.058V5.26067L80.4816 4.34375V19.7723H77.9102Z" fill="white"/>
<path d="M35.0672 14.2657C36.2506 14.2657 37.21 13.3063 37.21 12.1228C37.21 10.9394 36.2506 9.97998 35.0672 9.97998C33.8837 9.97998 32.9243 10.9394 32.9243 12.1228C32.9243 13.3063 33.8837 14.2657 35.0672 14.2657Z" fill="white"/>
<mask id="mask1_274_82" style="mask-type:luminance" maskUnits="userSpaceOnUse" x="38" y="4" width="16" height="21">
<path d="M53.8573 4.34375H38.4287V24.9151H53.8573V4.34375Z" fill="white"/>
</mask>
<g mask="url(#mask1_274_82)">
<path d="M46.9919 19.7716C45.8399 19.7716 44.8251 19.4973 43.9474 18.9488C43.0697 18.4002 42.3748 17.687 41.8628 16.8093V25.3396H38.8457V4.34131H41.5062V7.73051C42.0548 6.87108 42.7679 6.18537 43.6457 5.67337C44.5234 5.16137 45.5017 4.90537 46.5805 4.90537C47.5679 4.90537 48.4731 5.10651 49.2959 5.5088C50.1188 5.8928 50.8319 6.43223 51.4354 7.12708C52.0388 7.82194 52.5051 8.61737 52.8342 9.51337C53.1817 10.391 53.3554 11.3236 53.3554 12.311C53.3554 13.6825 53.0811 14.935 52.5325 16.0687C52.0022 17.2025 51.2525 18.1076 50.2834 18.7842C49.3325 19.4425 48.2354 19.7716 46.9919 19.7716ZM46.0045 17.1933C46.6445 17.1933 47.2205 17.0562 47.7325 16.7819C48.2628 16.5076 48.7108 16.1419 49.0765 15.6847C49.4605 15.2276 49.7531 14.7065 49.9542 14.1213C50.1554 13.5362 50.2559 12.9327 50.2559 12.311C50.2559 11.6527 50.1462 11.031 49.9268 10.4459C49.7074 9.8608 49.3874 9.3488 48.9668 8.90994C48.5645 8.47108 48.0891 8.12366 47.5405 7.86766C47.0102 7.61166 46.4251 7.48365 45.7851 7.48365C45.4011 7.48365 44.9988 7.5568 44.5782 7.70308C44.1577 7.84937 43.7645 8.05051 43.3988 8.30651C43.0331 8.56251 42.7131 8.86423 42.4388 9.21166C42.1645 9.55909 41.9725 9.9248 41.8628 10.3087V14.0665C42.1188 14.6516 42.4571 15.1819 42.8777 15.6573C43.2982 16.1145 43.7828 16.4893 44.3314 16.7819C44.8799 17.0562 45.4377 17.1933 46.0045 17.1933Z" fill="white"/>
</g>
<mask id="mask2_274_82" style="mask-type:luminance" maskUnits="userSpaceOnUse" x="41" y="4" width="13" height="21">
<path d="M53.8574 4.34375H41.8574V24.9151H53.8574V4.34375Z" fill="white"/>
</mask>
<g mask="url(#mask2_274_82)">
<path d="M46.9866 19.779C45.8346 19.779 44.8198 19.5047 43.942 18.9561C43.0643 18.4075 42.3695 17.6944 41.8575 16.8167V25.347H38.8403V4.34863H41.5009V7.73783C42.0495 6.8784 42.7626 6.19269 43.6403 5.68069C44.518 5.16869 45.4963 4.91269 46.5752 4.91269C47.5626 4.91269 48.4678 5.11383 49.2906 5.51611C50.1135 5.90011 50.8266 6.43954 51.43 7.1344C52.0335 7.82926 52.4998 8.62469 52.8289 9.52069C53.1763 10.3984 53.35 11.331 53.35 12.3184C53.35 13.6898 53.0758 14.9424 52.5272 16.0761C51.9969 17.2098 51.2472 18.115 50.278 18.7915C49.3272 19.4498 48.23 19.779 46.9866 19.779ZM45.9992 17.2007C46.6392 17.2007 47.2152 17.0635 47.7272 16.7892C48.2575 16.515 48.7055 16.1492 49.0712 15.6921C49.4552 15.235 49.7478 14.7138 49.9489 14.1287C50.15 13.5435 50.2506 12.9401 50.2506 12.3184C50.2506 11.6601 50.1409 11.0384 49.9215 10.4532C49.702 9.86812 49.382 9.35612 48.9615 8.91726C48.5592 8.4784 48.0838 8.13097 47.5352 7.87497C47.0049 7.61897 46.4198 7.49097 45.7798 7.49097C45.3958 7.49097 44.9935 7.56411 44.5729 7.7104C44.1523 7.85669 43.7592 8.05783 43.3935 8.31383C43.0278 8.56983 42.7078 8.87155 42.4335 9.21897C42.1592 9.5664 41.9672 9.93212 41.8575 10.3161V14.0738C42.1135 14.659 42.4518 15.1892 42.8723 15.6647C43.2929 16.1218 43.7775 16.4967 44.326 16.7892C44.8746 17.0635 45.4323 17.2007 45.9992 17.2007Z" fill="white"/>
</g>
<path d="M78.5461 0.921387H81.2153L80.5766 3.49282H77.9106L78.5461 0.921387Z" fill="white"/>
<path d="M9.0865 4.31494H0.710938V19.7648H9.0865V4.31494Z" fill="white"/>
<path d="M71.9257 19.4976V17.4127C71.3406 18.2174 70.6 18.8118 69.704 19.1959C68.808 19.5799 67.8572 19.772 66.8514 19.772C65.9372 19.772 65.1052 19.5799 64.3554 19.1959C63.624 18.7935 63.048 18.254 62.6274 17.5773C62.2069 16.8824 61.9966 16.1142 61.9966 15.273C61.9966 14.5231 62.1612 13.8647 62.4903 13.2978C62.8377 12.7309 63.2949 12.2554 63.8617 11.8713C64.4286 11.4872 65.0777 11.2038 65.8092 11.0209C66.5406 10.838 67.2903 10.7465 68.0583 10.7465C68.8994 10.7465 69.6492 10.8197 70.3074 10.966C70.9657 11.094 71.4777 11.2403 71.8434 11.4049V10.4174C71.8434 9.37488 71.5326 8.55189 70.9109 7.94837C70.3074 7.34485 69.448 7.04309 68.3326 7.04309C67.5829 7.04309 66.8332 7.18025 66.0834 7.45458C65.3337 7.72891 64.5657 8.1404 63.7794 8.68906L62.8469 6.76876C63.688 6.20181 64.5932 5.75374 65.5623 5.42455C66.5314 5.07706 67.5463 4.90332 68.6069 4.90332C69.96 4.90332 71.0937 5.14107 72.008 5.61658C72.9406 6.07379 73.6446 6.75047 74.12 7.64661C74.6137 8.52446 74.8606 9.55777 74.8606 10.7465V19.4976H71.9257ZM71.2674 16.0411C71.6514 15.6753 71.8434 15.3278 71.8434 14.9986V13.1058C71.3132 12.9046 70.7554 12.7491 70.1703 12.6394C69.6034 12.5297 69.0549 12.4748 68.5246 12.4748C68.0857 12.4748 67.6469 12.5297 67.208 12.6394C66.7692 12.7309 66.3669 12.8863 66.0012 13.1058C65.6537 13.3069 65.3703 13.5721 65.1509 13.9013C64.9497 14.2122 64.8492 14.5871 64.8492 15.0261C64.8492 15.5199 64.9772 15.9588 65.2332 16.3429C65.5074 16.7269 65.8549 17.0287 66.2754 17.2481C66.696 17.4493 67.1623 17.5499 67.6743 17.5499C68.1132 17.5499 68.5612 17.495 69.0183 17.3853C69.4754 17.2756 69.9052 17.111 70.3074 16.8915C70.7097 16.672 71.0297 16.3886 71.2674 16.0411Z" fill="white"/>
<path d="M57.3269 19.7722C56.504 19.7722 55.864 19.571 55.4069 19.1687C54.9498 18.7664 54.7212 18.1904 54.7212 17.4407C54.7212 17.2944 54.7303 17.139 54.7486 16.9744C54.7669 16.8099 54.7943 16.6544 54.8309 16.5082L58.1431 0.915039H61.1328L58.0675 15.411C58.0492 15.5024 58.0309 15.5939 58.0126 15.6853C57.9943 15.7767 57.9852 15.8682 57.9852 15.9596C57.9852 16.7276 58.3783 17.1116 59.1646 17.1116C59.3658 17.1116 59.6035 17.075 59.8778 17.0019C60.1703 16.9287 60.4355 16.8464 60.6732 16.755L60.5635 19.1139C60.1063 19.2967 59.5669 19.4522 58.9452 19.5802C58.3418 19.7082 57.8023 19.7722 57.3269 19.7722Z" fill="white"/>
<path d="M28.099 19.7648V8.75406L22.3664 17.1101H20.5561L14.7961 8.75406V19.7648H11.7241V4.31494H15.0155L21.4613 13.759L27.907 4.31494H31.1984V19.7648H28.099Z" fill="white"/>
</g>
</g>
<defs>
<clipPath id="clip0_274_82">
<rect width="82" height="25" fill="white"/>
</clipPath>
</defs>
</svg>
