<svg width="284" height="361" viewBox="0 0 284 361" fill="none" xmlns="http://www.w3.org/2000/svg">
<path d="M53.3921 36.6287V18.8513L59.298 12.8857H70.9906L74.9875 16.3457V0H81.7286V42.5943H75.3454V37.7026L70.4537 42.5943H59.298L53.3921 36.6287ZM69.6781 36.8077L74.9875 31.4387V22.7289L70.394 18.6723H62.6387L60.1332 21.1779V34.3022L62.6387 36.8077H69.6781Z" fill="white"/>
<path d="M88.871 36.6884V18.8513L94.777 12.8857H110.944L116.969 18.8513V29.9473H95.6122V34.7198L97.8791 36.9867H108.08L110.228 34.7794V32.9897H116.909V36.8077L111.123 42.5943H94.7173L88.871 36.6884ZM110.228 24.9958V20.8796L107.901 18.4933H97.9387L95.6122 20.8796V24.9958H110.228Z" fill="white"/>
<path d="M122.348 37.0463V33.4073H128.97V35.3163L130.64 37.0463H140.782L142.452 35.3163V32.0949L140.722 30.3649H127.896L122.587 24.9958V18.3144L128.016 12.8857H142.989L148.478 18.4337V22.0727H141.856V20.1637L140.185 18.4337H130.879L129.209 20.1637V23.1465L130.939 24.8765H143.705L149.074 30.3052V37.1656L143.645 42.5943H127.837L122.348 37.0463Z" fill="white"/>
<path d="M155.059 6.5025V3.04245L157.505 0.656218H161.144L163.59 3.04245V6.5025L161.144 8.88874H157.505L155.059 6.5025ZM155.954 12.8857H162.695V42.5943H155.954V12.8857Z" fill="white"/>
<path d="M198.768 12.8857V49.6337L192.624 55.7187H176.934L171.744 50.5286V46.5913H178.426V48.5599L179.917 50.0513H189.701L192.027 47.6651V38.3588L187.434 42.5943H176.338L170.432 36.6287V18.8513L176.338 12.8857H187.911L192.445 17.3002V12.8857H198.768ZM192.027 23.1465L187.255 18.6723H179.679L177.173 21.1779V34.3022L179.679 36.8077H186.718L192.027 31.6176V23.1465Z" fill="white"/>
<path d="M206.507 12.8857H212.771V18.3144L218.2 12.8857H227.626L233.89 19.1496V42.5943H227.148V20.9989L224.822 18.6723H219.453L213.249 24.9362V42.5943H206.507V12.8857Z" fill="white"/>
<path d="M15.1526 42.6114H21.7148L36.8077 0.85228H29.7683L26.189 10.7552H10.6188L7.0394 0.85228H0L15.1526 42.6114ZM24.5782 16.5418L18.4337 34.2H18.3144L12.2891 16.5418H24.5782Z" fill="white"/>
<path d="M59.6133 116.594V98.5187H54.2443V92.7918H59.7326V83.1275H66.3544V92.7918H75.4818V98.5187H66.3544V114.447L68.681 116.773H75.4818V122.5H65.5193L59.6133 116.594Z" fill="white"/>
<path d="M81.164 92.7918H87.4279V97.8625L92.3793 92.7918H100.612V98.5784H93.8708L87.9052 104.663V122.5H81.164V92.7918Z" fill="white"/>
<path d="M104.81 116.475V92.7918H111.551V114.387L113.877 116.714H119.067L125.391 110.39V92.7918H132.132V122.5H125.868V117.012L120.32 122.5H110.835L104.81 116.475Z" fill="white"/>
<path d="M139.291 116.594V98.7574L145.197 92.7918H161.364L167.389 98.7574V109.853H146.032V114.626L148.299 116.893H158.5L160.648 114.686V112.896H167.33V116.714L161.543 122.5H145.138L139.291 116.594ZM160.648 104.902V100.786L158.322 98.3994H148.359L146.032 100.786V104.902H160.648Z" fill="white"/>
<path d="M0 86.4598V114.737L6.74112 121.478H30.5694L37.1912 114.856V109.368H30.2711V112.41L27.1093 115.512H10.3205L6.92007 112.171V103.581H30.5694V97.6154H6.92007V89.025L10.3205 85.6842H27.1093L30.2711 88.7863V91.8288H37.1912V86.3405L30.5694 79.7187H6.74112L0 86.4598Z" fill="white"/>
<path fill-rule="evenodd" clip-rule="evenodd" d="M228.22 90.4838L232.286 94.5498L200.979 94.5499L205.045 90.4838L202.21 87.3886L184.422 102.303L202.21 117.217L205.045 114.121L200.979 110.055H232.286L228.22 114.121L231.055 117.217L248.843 102.303L231.055 87.3886L228.22 90.4838ZM236.487 105.854L238.808 103.533V101.072L236.487 98.7512H196.778L194.457 101.072V103.533L196.778 105.854H236.487Z" fill="white"/>
<path d="M0 158.73H6.26385V163.92L11.3943 158.73H18.7916L23.0272 163.025L27.3224 158.73H37.3446L43.4295 164.874V188.439H36.6884V166.843L34.3618 164.517H28.8138L25.3538 167.977V188.439H18.7916V166.783L16.5247 164.517H12.4681L6.74109 170.303V188.439H0V158.73Z" fill="white"/>
<path d="M50.2624 182.533V164.695L56.1683 158.73H72.3351L78.3604 164.695V175.791H57.0035V180.564L59.2705 182.831H69.4717L71.6193 180.624V178.834H78.3007V182.652L72.5142 188.439H56.1088L50.2624 182.533ZM71.6193 170.84V166.724L69.2927 164.338H59.3301L57.0035 166.724V170.84H71.6193Z" fill="white"/>
<path d="M84.3362 183.129V176.09L89.6456 170.84H104.977V166.426L102.77 164.218H93.404L91.1967 166.426V168.335H84.5749V164.874L90.6597 158.73H105.514L111.599 164.874V188.439H105.454V183.845L100.682 188.439H89.6456L84.3362 183.129ZM100.026 183.129L104.977 178.357V175.851H92.8671L90.9581 177.7V181.339L92.7477 183.129H100.026Z" fill="white"/>
<path d="M119.079 158.73H125.343V164.159L130.771 158.73H140.197L146.461 164.994V188.439H139.72V166.843L137.393 164.517H132.024L125.82 170.78V188.439H119.079V158.73Z" fill="white"/>
<path d="M153.619 152.347V148.887L156.065 146.5H159.704L162.149 148.887V152.347L159.704 154.733H156.065L153.619 152.347ZM154.513 158.73H161.255V188.439H154.513V158.73Z" fill="white"/>
<path d="M169.588 158.73H175.852V164.159L181.281 158.73H190.707L196.97 164.994V188.439H190.229V166.843L187.903 164.517H182.534L176.329 170.78V188.439H169.588V158.73Z" fill="white"/>
<path d="M232.166 158.73V195.478L226.022 201.563H210.332L205.142 196.373V192.436H211.824V194.404L213.315 195.896H223.099L225.425 193.509V184.203L220.832 188.439H209.736L203.83 182.473V164.695L209.736 158.73H221.309L225.843 163.144V158.73H232.166ZM225.425 168.991L220.653 164.517H213.077L210.571 167.022V180.146L213.077 182.652H220.116L225.425 177.462V168.991Z" fill="white"/>
<path d="M276.322 189.112L265.371 154.972H264.996L254.009 189.112H247L261.93 146.5H268.438L283.331 189.112H276.322Z" fill="white"/>
<path d="M0 274.302V232.483L6.92009 225.563H14.735V231.409H10.0819L6.74112 234.75V272.035L10.0819 275.376H14.735V281.222H6.92009L0 274.302Z" fill="white"/>
<path d="M22.3686 250.26H16.9996V244.533H22.3686V238.389L28.0956 232.662H38.2968V238.27H31.0188L28.9905 240.238V244.533H38.2968V250.26H29.1098V274.242H22.3686V250.26Z" fill="white"/>
<path d="M42.4559 268.217V244.533H49.197V266.129L51.5236 268.456H56.7137L63.0372 262.132V244.533H69.7783V274.242H63.5145V268.754L57.9665 274.242H48.4812L42.4559 268.217Z" fill="white"/>
<path d="M77.5341 244.533H83.798V249.962L89.2266 244.533H98.6523L104.916 250.797V274.242H98.175V252.647L95.8484 250.32H90.4794L84.2752 256.584V274.242H77.5341V244.533Z" fill="white"/>
<path d="M111.776 268.336V250.439L117.622 244.533H133.311L139.217 250.499V255.391H132.476V252.647L130.09 250.32H120.903L118.517 252.647V266.129L120.903 268.456H130.09L132.476 266.129V263.385H139.217V268.277L133.311 274.242H117.622L111.776 268.336Z" fill="white"/>
<path d="M147.856 268.336V250.26H142.487V244.533H147.975V234.869H154.597V244.533H163.724V250.26H154.597V266.189L156.924 268.515H163.724V274.242H153.762L147.856 268.336Z" fill="white"/>
<path d="M169.108 238.15V234.69L171.554 232.304H175.193L177.639 234.69V238.15L175.193 240.536H171.554L169.108 238.15ZM170.003 244.533H176.744V274.242H170.003V244.533Z" fill="white"/>
<path d="M184.481 268.277V250.499L190.387 244.533H206.852L212.818 250.499V268.277L206.852 274.242H190.387L184.481 268.277ZM203.691 268.575L206.077 266.189V252.587L203.691 250.201H193.609L191.222 252.587V266.189L193.609 268.575H203.691Z" fill="white"/>
<path d="M219.974 244.533H226.238V249.962L231.667 244.533H241.092L247.356 250.797V274.242H240.615V252.647L238.289 250.32H232.92L226.715 256.584V274.242H219.974V244.533Z" fill="white"/>
<path d="M73.5473 329.919H68.1782V324.192H73.5473V318.048L79.2743 312.321H89.4754V317.929H82.1974L80.1691 319.897V324.192H89.4754V329.919H80.2884V353.901H73.5473V329.919Z" fill="white"/>
<path d="M92.4624 347.936V330.158L98.3683 324.192H114.833L120.799 330.158V347.936L114.833 353.901H98.3683L92.4624 347.936ZM111.672 348.234L114.058 345.848V332.246L111.672 329.86H101.59L99.2035 332.246V345.848L101.59 348.234H111.672Z" fill="white"/>
<path d="M127.955 324.192H134.219V329.263L139.171 324.192H147.403V329.979H140.662L134.696 336.064V353.901H127.955V324.192Z" fill="white"/>
<path d="M151.899 324.192H158.163V329.383L163.294 324.192H170.691L174.926 328.488L179.222 324.192H189.244L195.329 330.337V353.901H188.588V332.306L186.261 329.979H180.713L177.253 333.439V353.901H170.691V332.246L168.424 329.979H164.367L158.64 335.766V353.901H151.899V324.192Z" fill="white"/>
<path d="M199.954 360.881V355.035H204.608L207.948 351.694V314.409L204.608 311.068H199.954V305.222H207.769L214.689 312.142V353.961L207.769 360.881H199.954Z" fill="white"/>
<path fill-rule="evenodd" clip-rule="evenodd" d="M37.4305 343.314L32.8725 347.872L36.0506 351.342L55.9911 334.624L36.0506 317.905L32.8725 321.375L37.4305 325.933H0V330.642H42.1402L44.742 333.244V336.003L42.1402 338.605H0V343.314H37.4305Z" fill="white"/>
</svg>
