<svg width="537" height="207" viewBox="0 0 537 207" fill="none" xmlns="http://www.w3.org/2000/svg">
<path d="M310.552 37.7281V19.6524H305.183V13.9254H310.671V4.26114H317.293V13.9254H326.42V19.6524H317.293V35.5805L319.619 37.9071H326.42V43.6341H316.458L310.552 37.7281Z" fill="white"/>
<path d="M332.102 13.9254H338.366V18.9962L343.318 13.9254H351.55V19.712H344.809L338.844 25.7969V43.6341H332.102V13.9254Z" fill="white"/>
<path d="M355.748 37.6088V13.9254H362.489V35.5209L364.816 37.8474H370.006L376.329 31.5239V13.9254H383.071V43.6341H376.807V38.1457L371.259 43.6341H361.773L355.748 37.6088Z" fill="white"/>
<path d="M390.23 37.7281V19.891L396.136 13.9254H412.302L418.328 19.891V30.987H396.971V35.7595L399.238 38.0264H409.439L411.587 35.8191V34.0295H418.268V37.8474L412.481 43.6341H396.076L390.23 37.7281ZM411.587 26.0356V21.9193L409.26 19.5331H399.297L396.971 21.9193V26.0356H411.587Z" fill="white"/>
<path d="M53.3921 36.6287V18.8513L59.298 12.8857H70.9906L74.9875 16.3457V0H81.7286V42.5943H75.3454V37.7026L70.4537 42.5943H59.298L53.3921 36.6287ZM69.6781 36.8077L74.9875 31.4387V22.7289L70.394 18.6723H62.6387L60.1332 21.1779V34.3022L62.6387 36.8077H69.6781Z" fill="white"/>
<path d="M88.871 36.6884V18.8513L94.777 12.8857H110.944L116.969 18.8513V29.9473H95.6122V34.7198L97.8791 36.9867H108.08L110.228 34.7794V32.9897H116.909V36.8077L111.123 42.5943H94.7173L88.871 36.6884ZM110.228 24.9958V20.8796L107.901 18.4933H97.9387L95.6122 20.8796V24.9958H110.228Z" fill="white"/>
<path d="M122.348 37.0463V33.4073H128.97V35.3163L130.64 37.0463H140.782L142.452 35.3163V32.0949L140.722 30.3649H127.896L122.587 24.9958V18.3144L128.016 12.8857H142.989L148.478 18.4337V22.0727H141.856V20.1637L140.185 18.4337H130.879L129.209 20.1637V23.1465L130.939 24.8765H143.705L149.074 30.3052V37.1656L143.645 42.5943H127.837L122.348 37.0463Z" fill="white"/>
<path d="M155.059 6.5025V3.04245L157.505 0.656218H161.144L163.59 3.04245V6.5025L161.144 8.88874H157.505L155.059 6.5025ZM155.954 12.8857H162.695V42.5943H155.954V12.8857Z" fill="white"/>
<path d="M198.768 12.8857V49.6337L192.624 55.7187H176.934L171.744 50.5286V46.5913H178.426V48.5599L179.917 50.0513H189.701L192.027 47.6651V38.3588L187.434 42.5943H176.338L170.432 36.6287V18.8513L176.338 12.8857H187.911L192.445 17.3002V12.8857H198.768ZM192.027 23.1465L187.255 18.6723H179.679L177.173 21.1779V34.3022L179.679 36.8077H186.718L192.027 31.6176V23.1465Z" fill="white"/>
<path d="M206.507 12.8857H212.771V18.3144L218.2 12.8857H227.626L233.89 19.1496V42.5943H227.148V20.9989L224.822 18.6723H219.453L213.249 24.9362V42.5943H206.507V12.8857Z" fill="white"/>
<path d="M15.1526 42.6114H21.7148L36.8077 0.85228H29.7683L26.189 10.7552H10.6188L7.0394 0.85228H0L15.1526 42.6114ZM24.5782 16.5418L18.4337 34.2H18.3144L12.2891 16.5418H24.5782Z" fill="white"/>
<path d="M250.938 7.5934V35.8703L257.68 42.6115H281.508L288.13 35.9896V30.5013H281.21V33.5437L278.048 36.6458H261.259L257.859 33.3051V24.7146H281.508V18.749H257.859V10.1586L261.259 6.81788H278.048L281.21 9.91998V12.9624H288.13V7.47409L281.508 0.85228H257.68L250.938 7.5934Z" fill="white"/>
<path d="M81.473 87.9481H87.7368V93.1382L92.8673 87.9481H100.265L104.5 92.2433L108.795 87.9481H118.818L124.902 94.0927V117.657H118.161V96.0613L115.835 93.7347H110.287L106.827 97.1948V117.657H100.265V96.0017L97.9976 93.7347H93.9411L88.2141 99.5214V117.657H81.473V87.9481Z" fill="white"/>
<path d="M131.735 111.751V93.9137L137.641 87.9481H153.808L159.833 93.9137V105.01H138.477V109.782L140.743 112.049H150.945L153.092 109.842V108.052H159.774V111.87L153.987 117.657H137.582L131.735 111.751ZM153.092 100.058V95.942L150.766 93.5558H140.803L138.477 95.942V100.058H153.092Z" fill="white"/>
<path d="M165.809 112.347V105.308L171.119 100.058H186.45V95.6437L184.243 93.4365H174.877L172.67 95.6437V97.5527H166.048V94.0927L172.133 87.9481H186.987L193.072 94.0927V117.657H186.927V113.063L182.155 117.657H171.119L165.809 112.347ZM181.499 112.347L186.45 107.575V105.069H174.34L172.431 106.919V110.558L174.221 112.347H181.499Z" fill="white"/>
<path d="M200.552 87.9481H206.816V93.3768L212.244 87.9481H221.67L227.934 94.212V117.657H221.193V96.0613L218.866 93.7347H213.497L207.293 99.9986V117.657H200.552V87.9481Z" fill="white"/>
<path d="M235.092 81.5649V78.1049L237.538 75.7187H241.177L243.622 78.1049V81.5649L241.177 83.9512H237.538L235.092 81.5649ZM235.986 87.9481H242.728V117.657H235.986V87.9481Z" fill="white"/>
<path d="M251.061 87.9481H257.325V93.3768L262.754 87.9481H272.18L278.443 94.212V117.657H271.702V96.0613L269.376 93.7347H264.007L257.802 99.9986V117.657H251.061V87.9481Z" fill="white"/>
<path d="M313.639 87.9481V124.696L307.495 130.781H291.805L286.615 125.591V121.654H293.297V123.622L294.788 125.114H304.572L306.898 122.728V113.421L302.305 117.657H291.209L285.303 111.691V93.9137L291.209 87.9481H302.782L307.316 92.3627V87.9481H313.639ZM306.898 98.2089L302.126 93.7347H294.55L292.044 96.2403V109.365L294.55 111.87H301.589L306.898 106.68V98.2089Z" fill="white"/>
<path fill-rule="evenodd" clip-rule="evenodd" d="M43.7976 87.3361L47.8637 91.4021L16.5572 91.4021L20.6232 87.3361L17.7882 84.2409L0 99.1549L17.7882 114.069L20.6232 110.974L16.5572 106.908H47.8636L43.7976 110.974L46.6326 114.069L64.4208 99.1549L46.6327 84.2409L43.7976 87.3361ZM52.065 102.706L54.3859 100.385V97.9244L52.065 95.6035H12.3558L10.0349 97.9244V100.385L12.3558 102.706H52.065Z" fill="white"/>
<path d="M395.391 175.479H390.022V169.752H395.391V163.607L401.118 157.88H411.319V163.488H404.041L402.013 165.456V169.752H411.319V175.479H402.132V199.46H395.391V175.479Z" fill="white"/>
<path d="M414.306 193.495V175.717L420.212 169.752H436.677L442.643 175.717V193.495L436.677 199.46H420.212L414.306 193.495ZM433.515 193.793L435.902 191.407V177.805L433.515 175.419H423.434L421.047 177.805V191.407L423.434 193.793H433.515Z" fill="white"/>
<path d="M449.799 169.752H456.063V174.822L461.014 169.752H469.247V175.538H462.506L456.54 181.623V199.46H449.799V169.752Z" fill="white"/>
<path d="M473.743 169.752H480.007V174.942L485.137 169.752H492.535L496.77 174.047L501.065 169.752H511.088L517.173 175.896V199.46H510.431V177.865L508.105 175.538H502.557L499.097 178.998V199.46H492.535V177.805L490.268 175.538H486.211L480.484 181.325V199.46H473.743V169.752Z" fill="white"/>
<path d="M521.798 206.44V200.594H526.451L529.792 197.253V159.968L526.451 156.627H521.798V150.781H529.613L536.533 157.701V199.52L529.613 206.44H521.798Z" fill="white"/>
<path d="M53.3921 199.52V157.701L60.3122 150.781H68.1271V156.627H63.4739L60.1332 159.968V197.253L63.4739 200.594H68.1271V206.44H60.3122L53.3921 199.52Z" fill="white"/>
<path d="M75.7607 175.479H70.3917V169.752H75.7607V163.607L81.4877 157.88H91.6888V163.488H84.4108L82.3825 165.456V169.752H91.6888V175.479H82.5018V199.46H75.7607V175.479Z" fill="white"/>
<path d="M95.848 193.435V169.752H102.589V191.347L104.916 193.674H110.106L116.429 187.35V169.752H123.17V199.46H116.907V193.972L111.359 199.46H101.873L95.848 193.435Z" fill="white"/>
<path d="M130.926 169.752H137.19V175.18L142.619 169.752H152.044L158.308 176.016V199.46H151.567V177.865L149.241 175.538H143.871L137.667 181.802V199.46H130.926V169.752Z" fill="white"/>
<path d="M165.168 193.554V175.658L171.014 169.752H186.704L192.609 175.717V180.609H185.868V177.865L183.482 175.538H174.295L171.909 177.865V191.347L174.295 193.674H183.482L185.868 191.347V188.603H192.609V193.495L186.704 199.46H171.014L165.168 193.554Z" fill="white"/>
<path d="M201.248 193.554V175.479H195.879V169.752H201.367V160.087H207.989V169.752H217.116V175.479H207.989V191.407L210.316 193.733H217.116V199.46H207.154L201.248 193.554Z" fill="white"/>
<path d="M222.5 163.368V159.908L224.946 157.522H228.585L231.031 159.908V163.368L228.585 165.755H224.946L222.5 163.368ZM223.395 169.752H230.136V199.46H223.395V169.752Z" fill="white"/>
<path d="M237.873 193.495V175.717L243.779 169.752H260.244L266.21 175.717V193.495L260.244 199.46H243.779L237.873 193.495ZM257.083 193.793L259.469 191.407V177.805L257.083 175.419H247.001L244.615 177.805V191.407L247.001 193.793H257.083Z" fill="white"/>
<path d="M273.366 169.752H279.63V175.18L285.059 169.752H294.485L300.748 176.016V199.46H294.007V177.865L291.681 175.538H286.312L280.107 181.802V199.46H273.366V169.752Z" fill="white"/>
<path d="M29.3221 199.358L18.3713 165.218H17.9958L7.00853 199.358H0L14.9296 156.747H21.4375L36.3306 199.358H29.3221Z" fill="white"/>
<path fill-rule="evenodd" clip-rule="evenodd" d="M359.274 188.874L354.716 193.432L357.894 196.901L377.835 180.183L357.894 163.464L354.716 166.934L359.274 171.492H321.844V176.202H363.984L366.586 178.803V181.562L363.984 184.164H321.844V188.874H359.274Z" fill="white"/>
</svg>
