<svg width="749" height="128" viewBox="0 0 749 128" fill="none" xmlns="http://www.w3.org/2000/svg">
<path d="M516.833 12.2295H523.097V17.4195L528.228 12.2295H535.625L539.861 16.5247L544.156 12.2295H554.178L560.263 18.374V41.9381H553.522V20.3427L551.195 18.0161H545.647L542.187 21.4761V41.9381H535.625V20.283L533.358 18.0161H529.302L523.575 23.8027V41.9381H516.833V12.2295Z" fill="white"/>
<path d="M567.096 36.0322V18.1951L573.002 12.2295H589.169L595.194 18.1951V29.2911H573.837V34.0635L576.104 36.3305H586.305L588.453 34.1232V32.3335H595.134V36.1515L589.348 41.9381H572.942L567.096 36.0322ZM588.453 24.3396V20.2234L586.126 17.8371H576.164L573.837 20.2234V24.3396H588.453Z" fill="white"/>
<path d="M601.17 36.6287V29.5893L606.479 24.3396H621.811V19.9251L619.603 17.7178H610.237L608.03 19.9251V21.8341H601.408V18.374L607.493 12.2295H622.348L628.432 18.374V41.9381H622.288V37.3446L617.515 41.9381H606.479L601.17 36.6287ZM616.859 36.6287L621.811 31.8563V29.3507H609.701L607.792 31.2001V34.8391L609.581 36.6287H616.859Z" fill="white"/>
<path d="M635.912 12.2295H642.176V17.6582L647.605 12.2295H657.031L663.294 18.4933V41.9381H656.553V20.3427L654.227 18.0161H648.858L642.654 24.28V41.9381H635.912V12.2295Z" fill="white"/>
<path d="M670.452 5.84628V2.38624L672.898 0H676.537L678.983 2.38624V5.84628L676.537 8.23252H672.898L670.452 5.84628ZM671.347 12.2295H678.088V41.9381H671.347V12.2295Z" fill="white"/>
<path d="M686.422 12.2295H692.686V17.6582L698.114 12.2295H707.54L713.804 18.4933V41.9381H707.063V20.3427L704.736 18.0161H699.367L693.163 24.28V41.9381H686.422V12.2295Z" fill="white"/>
<path d="M749 12.2295V48.9775L742.855 55.0624H727.166L721.976 49.8724V45.9351H728.657V47.9037L730.149 49.3951H739.932L742.259 47.0089V37.7026L737.665 41.9381H726.569L720.663 35.9725V18.1951L726.569 12.2295H738.143L742.676 16.644V12.2295H749ZM742.259 22.4903L737.486 18.0161H729.91L727.404 20.5216V33.646L729.91 36.1515H736.949L742.259 30.9614V22.4903Z" fill="white"/>
<path d="M310.552 37.7281V19.6524H305.183V13.9254H310.671V4.26114H317.293V13.9254H326.42V19.6524H317.293V35.5805L319.619 37.9071H326.42V43.6341H316.458L310.552 37.7281Z" fill="white"/>
<path d="M332.102 13.9254H338.366V18.9962L343.318 13.9254H351.55V19.712H344.809L338.844 25.7969V43.6341H332.102V13.9254Z" fill="white"/>
<path d="M355.748 37.6088V13.9254H362.489V35.5209L364.816 37.8474H370.006L376.329 31.5239V13.9254H383.071V43.6341H376.807V38.1457L371.259 43.6341H361.773L355.748 37.6088Z" fill="white"/>
<path d="M390.23 37.7281V19.891L396.136 13.9254H412.302L418.328 19.891V30.987H396.971V35.7595L399.238 38.0264H409.439L411.587 35.8191V34.0295H418.268V37.8474L412.481 43.6341H396.076L390.23 37.7281ZM411.587 26.0356V21.9193L409.26 19.5331H399.297L396.971 21.9193V26.0356H411.587Z" fill="white"/>
<path d="M53.3921 36.6287V18.8513L59.298 12.8857H70.9906L74.9875 16.3457V0H81.7286V42.5943H75.3454V37.7026L70.4537 42.5943H59.298L53.3921 36.6287ZM69.6781 36.8077L74.9875 31.4387V22.7289L70.394 18.6723H62.6387L60.1332 21.1779V34.3022L62.6387 36.8077H69.6781Z" fill="white"/>
<path d="M88.871 36.6884V18.8513L94.777 12.8857H110.944L116.969 18.8513V29.9473H95.6122V34.7198L97.8791 36.9867H108.08L110.228 34.7794V32.9897H116.909V36.8077L111.123 42.5943H94.7173L88.871 36.6884ZM110.228 24.9958V20.8796L107.901 18.4933H97.9387L95.6122 20.8796V24.9958H110.228Z" fill="white"/>
<path d="M122.348 37.0463V33.4073H128.97V35.3163L130.64 37.0463H140.782L142.452 35.3163V32.0949L140.722 30.3649H127.896L122.587 24.9958V18.3144L128.016 12.8857H142.989L148.478 18.4337V22.0727H141.856V20.1637L140.185 18.4337H130.879L129.209 20.1637V23.1465L130.939 24.8765H143.705L149.074 30.3052V37.1656L143.645 42.5943H127.837L122.348 37.0463Z" fill="white"/>
<path d="M155.059 6.5025V3.04245L157.505 0.656218H161.144L163.59 3.04245V6.5025L161.144 8.88874H157.505L155.059 6.5025ZM155.954 12.8857H162.695V42.5943H155.954V12.8857Z" fill="white"/>
<path d="M198.768 12.8857V49.6337L192.624 55.7187H176.934L171.744 50.5286V46.5913H178.426V48.5599L179.917 50.0513H189.701L192.027 47.6651V38.3588L187.434 42.5943H176.338L170.432 36.6287V18.8513L176.338 12.8857H187.911L192.445 17.3002V12.8857H198.768ZM192.027 23.1465L187.255 18.6723H179.679L177.173 21.1779V34.3022L179.679 36.8077H186.718L192.027 31.6176V23.1465Z" fill="white"/>
<path d="M206.507 12.8857H212.771V18.3144L218.2 12.8857H227.626L233.89 19.1496V42.5943H227.148V20.9989L224.822 18.6723H219.453L213.249 24.9362V42.5943H206.507V12.8857Z" fill="white"/>
<path d="M15.1526 42.6114H21.7148L36.8077 0.85228H29.7683L26.189 10.7552H10.6188L7.0394 0.85228H0L15.1526 42.6114ZM24.5782 16.5418L18.4337 34.2H18.3144L12.2891 16.5418H24.5782Z" fill="white"/>
<path d="M250.938 7.5934V35.8703L257.68 42.6115H281.508L288.13 35.9896V30.5013H281.21V33.5437L278.048 36.6458H261.259L257.859 33.3051V24.7146H281.508V18.749H257.859V10.1586L261.259 6.81788H278.048L281.21 9.91998V12.9624H288.13V7.47409L281.508 0.85228H257.68L250.938 7.5934Z" fill="white"/>
<path fill-rule="evenodd" clip-rule="evenodd" d="M479.158 11.6174L483.224 15.6835L451.918 15.6835L455.984 11.6174L453.149 8.52228L435.361 23.4363L453.149 38.3502L455.984 35.2551L451.918 31.189L483.224 31.189L479.158 35.2551L481.993 38.3502L499.781 23.4363L481.993 8.52228L479.158 11.6174ZM487.426 26.9877L489.746 24.6668V22.2057L487.426 19.8848H447.716L445.395 22.2057V24.6668L447.716 26.9877L487.426 26.9877Z" fill="white"/>
<path d="M395.391 96.4162H390.022V90.6892H395.391V84.5447L401.118 78.8177H411.319V84.4254H404.041L402.013 86.394V90.6892H411.319V96.4162H402.132V120.398H395.391V96.4162Z" fill="white"/>
<path d="M414.306 114.432V96.6548L420.212 90.6892H436.677L442.643 96.6548V114.432L436.677 120.398H420.212L414.306 114.432ZM433.515 114.731L435.902 112.344V98.7428L433.515 96.3566H423.434L421.047 98.7428V112.344L423.434 114.731H433.515Z" fill="white"/>
<path d="M449.799 90.6892H456.063V95.76L461.014 90.6892H469.247V96.4759H462.506L456.54 102.561V120.398H449.799V90.6892Z" fill="white"/>
<path d="M473.743 90.6892H480.007V95.8793L485.137 90.6892H492.535L496.77 94.9845L501.065 90.6892H511.088L517.173 96.8338V120.398H510.431V98.8025L508.105 96.4759H502.557L499.097 99.9359V120.398H492.535V98.7428L490.268 96.4759H486.211L480.484 102.262V120.398H473.743V90.6892Z" fill="white"/>
<path d="M521.798 127.378V121.531H526.451L529.792 118.191V80.9057L526.451 77.5649H521.798V71.7187H529.613L536.533 78.6387V120.458L529.613 127.378H521.798Z" fill="white"/>
<path d="M53.3921 120.458V78.6387L60.3122 71.7187H68.1271V77.5649H63.4739L60.1332 80.9057V118.191L63.4739 121.531H68.1271V127.378H60.3122L53.3921 120.458Z" fill="white"/>
<path d="M75.7607 96.4162H70.3917V90.6892H75.7607V84.5447L81.4877 78.8177H91.6888V84.4254H84.4108L82.3825 86.394V90.6892H91.6888V96.4162H82.5018V120.398H75.7607V96.4162Z" fill="white"/>
<path d="M95.848 114.373V90.6892H102.589V112.285L104.916 114.611H110.106L116.429 108.288V90.6892H123.17V120.398H116.907V114.91L111.359 120.398H101.873L95.848 114.373Z" fill="white"/>
<path d="M130.926 90.6892H137.19V96.1179L142.619 90.6892H152.044L158.308 96.9531V120.398H151.567V98.8025L149.241 96.4759H143.871L137.667 102.74V120.398H130.926V90.6892Z" fill="white"/>
<path d="M165.168 114.492V96.5952L171.014 90.6892H186.704L192.609 96.6548V101.547H185.868V98.8025L183.482 96.4759H174.295L171.909 98.8025V112.285L174.295 114.611H183.482L185.868 112.285V109.541H192.609V114.432L186.704 120.398H171.014L165.168 114.492Z" fill="white"/>
<path d="M201.248 114.492V96.4162H195.879V90.6892H201.367V81.025H207.989V90.6892H217.116V96.4162H207.989V112.344L210.316 114.671H217.116V120.398H207.154L201.248 114.492Z" fill="white"/>
<path d="M222.5 84.3061V80.846L224.946 78.4598H228.585L231.031 80.846V84.3061L228.585 86.6923H224.946L222.5 84.3061ZM223.395 90.6892H230.136V120.398H223.395V90.6892Z" fill="white"/>
<path d="M237.873 114.432V96.6548L243.779 90.6892H260.244L266.21 96.6548V114.432L260.244 120.398H243.779L237.873 114.432ZM257.083 114.731L259.469 112.344V98.7428L257.083 96.3566H247.001L244.615 98.7428V112.344L247.001 114.731H257.083Z" fill="white"/>
<path d="M273.366 90.6892H279.63V96.1179L285.059 90.6892H294.485L300.748 96.9531V120.398H294.007V98.8025L291.681 96.4759H286.312L280.107 102.74V120.398H273.366V90.6892Z" fill="white"/>
<path d="M29.3221 120.296L18.3713 86.156H17.9958L7.00853 120.296H0L14.9296 77.6842H21.4375L36.3306 120.296H29.3221Z" fill="white"/>
<path fill-rule="evenodd" clip-rule="evenodd" d="M359.274 109.811L354.716 114.369L357.894 117.839L377.835 101.12L357.894 84.4019L354.716 87.8716L359.274 92.4296H321.844V97.1393H363.984L366.586 99.741V102.5L363.984 105.102H321.844V109.811H359.274Z" fill="white"/>
</svg>
