<svg width="32" height="32" viewBox="0 0 32 32" fill="none" xmlns="http://www.w3.org/2000/svg">
<path d="M8.01594 7.72642C8.00683 7.73325 8 9.16762 8 10.9116C8 14.024 8 14.0832 8.04326 14.1082C8.0683 14.1196 8.12067 14.131 8.15937 14.131C8.20036 14.131 8.34152 14.1469 8.47585 14.1651C8.82647 14.2175 9.1566 14.2608 9.4799 14.3017C9.637 14.3222 9.87151 14.3518 10.0036 14.3701C10.1356 14.3883 10.3656 14.4201 10.5158 14.4384C10.83 14.4771 11.2103 14.5271 11.5518 14.575C11.6838 14.5932 11.9092 14.6228 12.0527 14.6433C12.3213 14.6774 12.6446 14.7207 13.0886 14.7799C13.4961 14.8322 13.8445 14.8778 14.1473 14.9165C14.3044 14.937 14.5252 14.9666 14.6368 14.9848C14.7506 15.0007 14.9806 15.0326 15.1491 15.0531C15.5156 15.0986 15.8708 15.1442 16.1964 15.1897C16.3284 15.2079 16.5584 15.2375 16.7087 15.258C16.8589 15.2762 17.0843 15.3081 17.2096 15.3263C17.3348 15.3445 17.4691 15.3604 17.5055 15.3604C17.5442 15.3604 17.6558 15.3741 17.756 15.3923C17.8562 15.4105 18.0816 15.4424 18.2569 15.4629C18.4322 15.4834 18.6735 15.513 18.7919 15.5312C18.9103 15.5494 19.1311 15.579 19.2814 15.5995C19.4317 15.6177 19.632 15.645 19.7254 15.6564C19.8187 15.6701 19.9827 15.6906 20.0897 15.702C20.1967 15.7156 20.2991 15.7316 20.3196 15.7361C20.3378 15.7429 20.4517 15.7589 20.5701 15.7703C20.9571 15.8112 21.9999 15.9547 22.1615 15.9888C22.2481 16.0093 22.1775 16.0344 21.9908 16.0526C21.9043 16.0617 21.7699 16.0776 21.6948 16.089C21.565 16.1072 21.3624 16.1346 20.7841 16.212C20.6475 16.2302 20.4061 16.262 20.249 16.2825C19.9576 16.319 19.6434 16.3622 19.2359 16.4191C19.1107 16.4351 18.8693 16.467 18.7008 16.4875C18.5324 16.5079 18.3024 16.5375 18.1886 16.5558C18.077 16.574 17.8402 16.6036 17.6649 16.6241C17.4896 16.6445 17.2642 16.6764 17.164 16.6946C17.0638 16.7129 16.9477 16.7265 16.9067 16.7265C16.8658 16.7265 16.7314 16.7424 16.6108 16.7607C16.4901 16.7789 16.267 16.8085 16.1167 16.829C15.9664 16.8495 15.7433 16.8791 15.6226 16.8973C15.502 16.9155 15.3676 16.9314 15.3267 16.9314C15.2857 16.9314 15.1696 16.9451 15.0694 16.9633C14.9692 16.9815 14.7484 17.0134 14.5799 17.0339C14.2452 17.0726 13.9242 17.1158 13.5667 17.1705C13.4392 17.1887 13.3049 17.2046 13.2685 17.2046C13.2297 17.2046 13.1068 17.2183 12.9952 17.2365C12.8837 17.2547 12.6651 17.2866 12.508 17.3071C12.0253 17.3708 11.7567 17.405 11.4607 17.4437C11.3036 17.4642 11.0736 17.4938 10.9484 17.512C10.6297 17.5575 10.2472 17.6076 9.91249 17.6486C9.75539 17.6668 9.52544 17.6987 9.40022 17.7169C9.27499 17.7351 9.04504 17.7647 8.88794 17.7852C8.73084 17.8057 8.50544 17.8376 8.38705 17.8535C8.26866 17.8717 8.13433 17.8899 8.09107 17.8922L8.01138 17.899L8.00455 21.0911C8.00228 23.468 8.00683 24.2854 8.02504 24.2854C8.04098 24.2854 8.13888 24.2217 8.24817 24.142C8.80598 23.7299 9.50495 23.2517 10.2312 22.7759C10.4931 22.6074 11.2717 22.1156 11.3582 22.0678C11.3833 22.0542 11.447 22.0132 11.4994 21.979C11.554 21.9449 11.6019 21.9176 11.6064 21.9176C11.6132 21.9176 11.6633 21.8857 11.718 21.8493C11.7749 21.8105 11.825 21.7809 11.8318 21.7809C11.8386 21.7809 11.9707 21.7058 12.1255 21.6147C12.2781 21.5214 12.467 21.4121 12.5422 21.3711C12.6173 21.3279 12.7198 21.271 12.7698 21.2436C12.9292 21.1526 12.9725 21.1298 13.1341 21.041C13.4847 20.852 13.5462 20.8179 13.6122 20.7792C13.651 20.7587 13.7785 20.6881 13.8968 20.6266C14.0152 20.5629 14.1701 20.4809 14.2384 20.4445C14.3067 20.4081 14.4569 20.3284 14.5685 20.2669C14.6823 20.2077 14.8053 20.1394 14.8417 20.1189C14.9191 20.0734 15.0762 19.9891 15.3426 19.8457C15.4428 19.791 15.5817 19.7182 15.65 19.6795C15.7183 19.6431 15.8685 19.5634 15.9801 19.5042C16.0939 19.445 16.2374 19.3653 16.2988 19.3289C16.4491 19.2423 17.1162 18.9145 17.6649 18.6618C17.7537 18.6208 17.8971 18.5548 17.9837 18.5138C18.2227 18.4022 18.4504 18.2975 18.5528 18.2519C18.6029 18.2292 18.735 18.1677 18.8443 18.1176C18.9558 18.0653 19.0492 18.0243 19.056 18.0243C19.0606 18.0243 19.1357 17.9924 19.2199 17.9537C19.5068 17.8194 19.6002 17.7784 20.2832 17.4892C20.6589 17.3299 21.0004 17.1864 21.0414 17.1682C21.2098 17.0953 21.2713 17.0703 21.433 17.0043C21.5263 16.9678 21.7176 16.8904 21.8542 16.8335C22.1251 16.722 22.4643 16.5899 22.9129 16.4191C23.07 16.36 23.2589 16.2871 23.3341 16.2598C23.5139 16.1892 23.8145 16.0822 23.9807 16.0298C24.0513 16.0071 23.9238 15.9319 23.6756 15.85C23.457 15.7771 23.2703 15.7088 22.9812 15.5995C22.9379 15.5813 22.815 15.5358 22.708 15.4971C22.601 15.4583 22.4848 15.4128 22.4461 15.3946C22.4097 15.3787 22.2389 15.3126 22.0705 15.2466C21.7608 15.1282 21.2076 14.9074 21.0801 14.8504C21.0436 14.8322 20.8934 14.7708 20.7499 14.7116C20.6065 14.6524 20.4722 14.5977 20.4517 14.5863C20.4335 14.5772 20.2445 14.4953 20.0327 14.4042C19.821 14.3131 19.632 14.2312 19.6138 14.2221C19.5341 14.1834 19.3156 14.0855 19.0993 13.9944C18.974 13.942 18.7874 13.8578 18.6826 13.81C18.5802 13.7599 18.4891 13.7212 18.4845 13.7212C18.4777 13.7212 18.2865 13.6301 18.0565 13.5185C17.8288 13.4093 17.5101 13.2544 17.3462 13.177C17.1845 13.0996 17.0342 13.0268 17.016 13.0176C16.9978 13.0085 16.8384 12.9266 16.6631 12.8355C16.4878 12.7444 16.3034 12.6488 16.2533 12.6215C16.2032 12.5919 16.0598 12.5145 15.9346 12.4462C15.6818 12.3096 15.634 12.2845 15.502 12.2094C15.4519 12.1821 15.3198 12.1092 15.206 12.0477C15.0944 11.9863 14.9601 11.9134 14.91 11.8861C14.7916 11.8201 14.6755 11.7563 14.466 11.6425C14.3158 11.5628 14.0972 11.4421 13.7876 11.2714C13.7352 11.2418 13.5918 11.1644 13.4688 11.0983C13.3481 11.0323 13.207 10.9572 13.1569 10.9276C13.1068 10.9002 13.0453 10.8661 13.0203 10.8524C12.9952 10.8411 12.9178 10.7978 12.845 10.7568C12.7744 10.7158 12.6014 10.6157 12.4579 10.5337C12.3168 10.454 12.1802 10.3743 12.1551 10.3584C12.1301 10.3424 12.0936 10.3242 12.0754 10.3151C12.0117 10.2832 10.5841 9.4249 10.4316 9.32472C10.3474 9.27008 10.2039 9.17901 10.1128 9.12209C9.92615 9.00597 8.70352 8.19089 8.54643 8.07705C8.48951 8.03607 8.35518 7.93589 8.24589 7.8562C8.03187 7.6991 8.03871 7.70366 8.01594 7.72642Z" fill="black"/>
</svg>
