<svg width="1091" height="219" viewBox="0 0 1091 219" fill="none" xmlns="http://www.w3.org/2000/svg">
<path d="M80.6885 27.9694C80.6885 59.4326 55.1826 84.9386 23.7192 84.9386C15.2549 84.9386 7.22144 83.0925 0 79.7812V0H73.3616C78.0266 8.26196 80.6885 17.8047 80.6885 27.9694Z" fill="white"/>
<path fill-rule="evenodd" clip-rule="evenodd" d="M477 0V219H587.037L586.507 150.029C586.421 138.821 595.4 129.688 606.506 129.688L684.531 129.688L672.5 219H849V160.97H773.49C761.171 160.97 751.781 149.942 753.746 137.781L776 0L776.162 0.194336L776.191 0H776H477ZM544.5 43C533.73 43 525 51.7305 525 62.5C525 73.2695 533.73 82 544.5 82H692.035L698 43H544.5Z" fill="white"/>
<path d="M879 0H811.326L794.698 106.69C793.28 115.785 800.313 124 809.519 124H1045V143H1044.98C1044.99 143.331 1045 143.665 1045 144V153C1045 164.046 1036.05 173 1025 173H944C935.799 173 928.75 168.064 925.664 161H879V219H1091V0H1029V45C1029 56.0457 1020.05 65 1009 65H899C887.954 65 879 56.0457 879 45V0Z" fill="white"/>
<path d="M0.5 219H191V152.5C191 136.208 204.208 123 220.5 123C236.792 123 250 136.208 250 152.5V219H320V152.5C320 136.208 333.208 123 349.5 123C365.792 123 379 136.208 379 152.5V219H447V0H320V18C320 29.0457 311.046 38 300 38H270C258.954 38 250 29.0457 250 18V0H109.712C112.497 8.70947 114 17.9917 114 27.625C114 77.6758 73.4258 118.25 23.375 118.25C15.4729 118.25 7.80713 117.239 0.5 115.338V219Z" fill="white"/>
</svg>
