<svg width="136" height="41" viewBox="0 0 136 41" fill="none" xmlns="http://www.w3.org/2000/svg">
<g clip-path="url(#clip0_67_1257)">
<path d="M129.516 32.3434V19.4863V8.15735L133.802 6.62915V32.3434H129.516Z" fill="black"/>
<circle cx="58.1115" cy="19.5949" r="3.57143" fill="black"/>
<g clip-path="url(#clip1_67_1257)">
<path d="M77.9857 32.3419C76.0657 32.3419 74.3743 31.8848 72.9115 30.9705C71.4486 30.0562 70.2905 28.8677 69.4372 27.4048V41.6219H64.4086V6.62471H68.8429V12.2734C69.7572 10.841 70.9457 9.69813 72.4086 8.8448C73.8715 7.99146 75.5019 7.5648 77.3 7.5648C78.9457 7.5648 80.4543 7.90004 81.8258 8.57051C83.1972 9.21051 84.3857 10.1096 85.3915 11.2677C86.3972 12.4257 87.1743 13.7515 87.7229 15.2448C88.3019 16.7077 88.5915 18.2619 88.5915 19.9077C88.5915 22.1934 88.1343 24.281 87.22 26.1705C86.3362 28.06 85.0867 29.5686 83.4715 30.6962C81.8867 31.7934 80.0581 32.3419 77.9857 32.3419ZM76.34 28.0448C77.4067 28.0448 78.3667 27.8162 79.22 27.3591C80.1038 26.9019 80.8505 26.2924 81.46 25.5305C82.1 24.7686 82.5877 23.9 82.9229 22.9248C83.2581 21.9496 83.4258 20.9438 83.4258 19.9077C83.4258 18.8105 83.2429 17.7743 82.8772 16.7991C82.5115 15.8238 81.9781 14.9705 81.2772 14.2391C80.6067 13.5077 79.8143 12.9286 78.9 12.5019C78.0162 12.0753 77.041 11.8619 75.9743 11.8619C75.3343 11.8619 74.6638 11.9838 73.9629 12.2277C73.2619 12.4715 72.6067 12.8067 71.9972 13.2334C71.3877 13.66 70.8543 14.1629 70.3972 14.7419C69.94 15.321 69.62 15.9305 69.4372 16.5705V22.8334C69.8638 23.8086 70.4277 24.6924 71.1286 25.4848C71.8296 26.2467 72.6372 26.8715 73.5515 27.3591C74.4657 27.8162 75.3953 28.0448 76.34 28.0448Z" fill="black"/>
</g>
<g clip-path="url(#clip2_67_1257)">
<path d="M77.9775 32.3548C76.0575 32.3548 74.3661 31.8977 72.9032 30.9834C71.4404 30.0691 70.2823 28.8805 69.429 27.4177V41.6348H64.4004V6.63757H68.8347V12.2862C69.749 10.8539 70.9375 9.711 72.4004 8.85766C73.8632 8.00433 75.4937 7.57766 77.2918 7.57766C78.9375 7.57766 80.4461 7.9129 81.8175 8.58338C83.189 9.22338 84.3775 10.1224 85.3832 11.2805C86.389 12.4386 87.1661 13.7643 87.7147 15.2577C88.2937 16.7205 88.5833 18.2748 88.5833 19.9205C88.5833 22.2062 88.1261 24.2939 87.2118 26.1834C86.328 28.0729 85.0785 29.5815 83.4632 30.7091C81.8785 31.8062 80.0499 32.3548 77.9775 32.3548ZM76.3318 28.0577C77.3985 28.0577 78.3585 27.8291 79.2118 27.372C80.0956 26.9148 80.8423 26.3053 81.4518 25.5434C82.0918 24.7815 82.5794 23.9129 82.9147 22.9377C83.2499 21.9624 83.4175 20.9567 83.4175 19.9205C83.4175 18.8234 83.2347 17.7872 82.869 16.812C82.5033 15.8367 81.9699 14.9834 81.269 14.252C80.5985 13.5205 79.8061 12.9415 78.8918 12.5148C78.008 12.0881 77.0328 11.8748 75.9661 11.8748C75.3261 11.8748 74.6556 11.9967 73.9547 12.2405C73.2537 12.4843 72.5985 12.8196 71.989 13.2462C71.3794 13.6729 70.8461 14.1758 70.389 14.7548C69.9318 15.3339 69.6118 15.9434 69.429 16.5834V22.8462C69.8556 23.8215 70.4194 24.7053 71.1204 25.4977C71.8213 26.2596 72.629 26.8843 73.5432 27.372C74.4575 27.8291 75.3871 28.0577 76.3318 28.0577Z" fill="black"/>
</g>
<path d="M130.577 0.925049H135.025L133.961 5.21076H129.518L130.577 0.925049Z" fill="black"/>
<rect x="0.851562" y="6.58179" width="13.9593" height="25.7498" fill="black"/>
<path d="M119.543 31.8863V28.4115C118.567 29.7527 117.333 30.7433 115.84 31.3834C114.347 32.0235 112.762 32.3435 111.086 32.3435C109.562 32.3435 108.175 32.0235 106.926 31.3834C105.707 30.7128 104.747 29.8136 104.046 28.6858C103.345 27.5275 102.994 26.2473 102.994 24.8452C102.994 23.5955 103.268 22.4982 103.817 21.5533C104.396 20.6084 105.158 19.8159 106.103 19.1758C107.047 18.5357 108.129 18.0632 109.348 17.7584C110.567 17.4536 111.817 17.3012 113.097 17.3012C114.499 17.3012 115.748 17.4231 116.846 17.6669C117.943 17.8803 118.796 18.1242 119.406 18.3985V16.7525C119.406 15.0151 118.887 13.6435 117.851 12.6376C116.846 11.6317 115.413 11.1288 113.554 11.1288C112.305 11.1288 111.055 11.3574 109.806 11.8146C108.556 12.2718 107.276 12.9576 105.966 13.8721L104.411 10.6716C105.813 9.72665 107.322 8.97986 108.937 8.43121C110.552 7.85207 112.244 7.5625 114.011 7.5625C116.267 7.5625 118.156 7.95875 119.68 8.75126C121.234 9.51328 122.407 10.6411 123.2 12.1346C124.023 13.5977 124.434 15.3199 124.434 17.3012V31.8863H119.543ZM118.446 26.1254C119.086 25.5158 119.406 24.9367 119.406 24.388V21.2332C118.522 20.8979 117.592 20.6388 116.617 20.456C115.672 20.2731 114.758 20.1816 113.874 20.1816C113.143 20.1816 112.411 20.2731 111.68 20.456C110.948 20.6084 110.278 20.8674 109.668 21.2332C109.089 21.5685 108.617 22.0105 108.251 22.5591C107.916 23.0773 107.748 23.7022 107.748 24.4337C107.748 25.2567 107.962 25.9883 108.388 26.6284C108.846 27.2685 109.425 27.7714 110.126 28.1372C110.827 28.4724 111.604 28.6401 112.457 28.6401C113.188 28.6401 113.935 28.5487 114.697 28.3658C115.459 28.1829 116.175 27.9086 116.846 27.5428C117.516 27.177 118.049 26.7046 118.446 26.1254Z" fill="black"/>
<path d="M95.211 32.3435C93.8396 32.3435 92.7729 32.0083 92.011 31.3378C91.2491 30.6673 90.8682 29.7073 90.8682 28.4578C90.8682 28.214 90.8834 27.9549 90.9139 27.6806C90.9444 27.4063 90.9901 27.1473 91.051 26.9035L96.5713 0.914917H101.554L96.4453 25.0749C96.4148 25.2273 96.3844 25.3797 96.3539 25.5321C96.3234 25.6844 96.3082 25.8368 96.3082 25.9892C96.3082 27.2692 96.9634 27.9092 98.2739 27.9092C98.6091 27.9092 99.0053 27.8483 99.4625 27.7263C99.9501 27.6044 100.392 27.4673 100.788 27.3149L100.605 31.2463C99.8434 31.5511 98.9444 31.8102 97.9082 32.0235C96.9025 32.2368 96.0034 32.3435 95.211 32.3435Z" fill="black"/>
<path d="M46.498 32.3316V13.9803L36.9437 27.907H33.9265L24.3265 13.9803V32.3316H19.2065V6.58179H24.6923L35.4351 22.3218L46.178 6.58179H51.6637V32.3316H46.498Z" fill="black"/>
</g>
<defs>
<clipPath id="clip0_67_1257">
<rect width="134.286" height="40" fill="white" transform="translate(0.856934 0.914917)"/>
</clipPath>
<clipPath id="clip1_67_1257">
<rect width="25.7143" height="34.2857" fill="white" transform="translate(63.7139 6.62915)"/>
</clipPath>
<clipPath id="clip2_67_1257">
<rect width="20" height="34.2857" fill="white" transform="translate(69.4282 6.62915)"/>
</clipPath>
</defs>
</svg>
